<svg width="21" height="22" viewBox="0 0 21 22" fill="none" xmlns="http://www.w3.org/2000/svg">
<path d="M10.752 20.037C5.7771 20.037 1.7334 15.9933 1.7334 11.0184C1.7334 6.04346 5.7771 1.99976 10.752 1.99976C15.727 1.99976 19.7707 6.04346 19.7707 11.0184C19.7707 15.9933 15.727 20.037 10.752 20.037ZM10.752 3.25817C6.47342 3.25817 2.99181 6.73978 2.99181 11.0184C2.99181 15.297 6.47342 18.7786 10.752 18.7786C15.0306 18.7786 18.5122 15.297 18.5122 11.0184C18.5122 6.73978 15.0306 3.25817 10.752 3.25817Z" fill="#707070"/>
<path d="M13.864 14.3154C13.755 14.3154 13.6459 14.2902 13.5452 14.2231L10.9445 12.6711C10.2985 12.2852 9.82031 11.4378 9.82031 10.6912V7.25152C9.82031 6.90755 10.1056 6.62231 10.4495 6.62231C10.7935 6.62231 11.0787 6.90755 11.0787 7.25152V10.6912C11.0787 10.9932 11.3304 11.4378 11.5905 11.5889L14.1912 13.1409C14.4932 13.3171 14.5855 13.703 14.4093 14.005C14.2835 14.2064 14.0737 14.3154 13.864 14.3154Z" fill="#707070"/>
</svg>
