<svg width="45" height="44" viewBox="0 0 45 44" fill="none" xmlns="http://www.w3.org/2000/svg">
<rect x="0.808594" y="0.558594" width="43.2434" height="43.2434" rx="21.6217" fill="#7B7E98"/>
<path d="M18.4817 12.7793H26.3784C29.3866 12.7793 31.8308 15.2235 31.8308 18.2317V26.1284C31.8308 27.5744 31.2563 28.9613 30.2338 29.9838C29.2113 31.0063 27.8244 31.5808 26.3784 31.5808H18.4817C15.4735 31.5808 13.0293 29.1366 13.0293 26.1284V18.2317C13.0293 16.7857 13.6037 15.3988 14.6263 14.3763C15.6488 13.3537 17.0357 12.7793 18.4817 12.7793ZM18.2937 14.6594C17.3962 14.6594 16.5353 15.016 15.9007 15.6507C15.266 16.2853 14.9094 17.1462 14.9094 18.0437V26.3164C14.9094 28.1871 16.423 29.7006 18.2937 29.7006H26.5664C27.4639 29.7006 28.3247 29.3441 28.9594 28.7094C29.5941 28.0747 29.9506 27.2139 29.9506 26.3164V18.0437C29.9506 16.173 28.4371 14.6594 26.5664 14.6594H18.2937ZM27.3654 16.0696C27.6771 16.0696 27.976 16.1934 28.1964 16.4137C28.4167 16.6341 28.5405 16.933 28.5405 17.2447C28.5405 17.5563 28.4167 17.8552 28.1964 18.0756C27.976 18.2959 27.6771 18.4197 27.3654 18.4197C27.0538 18.4197 26.7549 18.2959 26.5345 18.0756C26.3141 17.8552 26.1903 17.5563 26.1903 17.2447C26.1903 16.933 26.3141 16.6341 26.5345 16.4137C26.7549 16.1934 27.0538 16.0696 27.3654 16.0696ZM22.43 17.4797C23.6767 17.4797 24.8722 17.9749 25.7537 18.8564C26.6352 19.7379 27.1304 20.9334 27.1304 22.18C27.1304 23.4267 26.6352 24.6222 25.7537 25.5037C24.8722 26.3852 23.6767 26.8804 22.43 26.8804C21.1834 26.8804 19.9879 26.3852 19.1064 25.5037C18.2249 24.6222 17.7297 23.4267 17.7297 22.18C17.7297 20.9334 18.2249 19.7379 19.1064 18.8564C19.9879 17.9749 21.1834 17.4797 22.43 17.4797ZM22.43 19.3598C21.6821 19.3598 20.9647 19.6569 20.4358 20.1858C19.9069 20.7147 19.6098 21.4321 19.6098 22.18C19.6098 22.928 19.9069 23.6454 20.4358 24.1742C20.9647 24.7031 21.6821 25.0003 22.43 25.0003C23.178 25.0003 23.8954 24.7031 24.4242 24.1742C24.9531 23.6454 25.2503 22.928 25.2503 22.18C25.2503 21.4321 24.9531 20.7147 24.4242 20.1858C23.8954 19.6569 23.178 19.3598 22.43 19.3598Z" fill="#111327"/>
</svg>
