<svg width="44" height="44" viewBox="0 0 44 44" fill="none" xmlns="http://www.w3.org/2000/svg">
<rect x="0.213867" y="0.558594" width="43.2434" height="43.2434" rx="21.6217" fill="#7B7E98"/>
<g clip-path="url(#clip0_762_1284)">
<path d="M29.4734 29.4347H14.1972C13.2219 29.4347 12.4346 28.6249 12.4346 27.6217V16.7437C12.4346 15.7405 13.2219 14.9307 14.1972 14.9307H29.4734C30.4488 14.9307 31.2361 15.7405 31.2361 16.7437V27.6217C31.2361 28.6249 30.4488 29.4347 29.4734 29.4347ZM14.1972 16.1393C13.8682 16.1393 13.6097 16.4052 13.6097 16.7437V27.6217C13.6097 27.9601 13.8682 28.226 14.1972 28.226H29.4734C29.8025 28.226 30.061 27.9601 30.061 27.6217V16.7437C30.061 16.4052 29.8025 16.1393 29.4734 16.1393H14.1972Z" fill="#111327"/>
<path d="M21.8355 24.5495C21.0129 24.5495 20.2608 24.211 19.6968 23.5946L13.5275 16.8502C13.3043 16.6085 13.316 16.2217 13.551 15.9921C13.7861 15.7624 14.1621 15.7745 14.3854 16.0163L20.5546 22.7606C21.2244 23.4979 22.4465 23.4979 23.1163 22.7606L29.2856 16.0284C29.5088 15.7866 29.8848 15.7745 30.1199 16.0042C30.3549 16.2338 30.3666 16.6206 30.1434 16.8623L23.9741 23.6067C23.4101 24.2231 22.658 24.5615 21.8355 24.5615V24.5495Z" fill="#111327"/>
</g>
<defs>
<clipPath id="clip0_762_1284">
<rect width="18.8015" height="16.9213" fill="white" transform="translate(12.4346 13.7197)"/>
</clipPath>
</defs>
</svg>
