<svg width="86" height="86" viewBox="0 0 86 86" fill="none" xmlns="http://www.w3.org/2000/svg">
<path fill-rule="evenodd" clip-rule="evenodd" d="M59.4554 82.7268C54.2384 84.8878 48.6468 86 43 86C31.5957 86 20.6585 81.4697 12.5944 73.4056C4.53034 65.3415 0 54.4043 0 43C0 31.5957 4.53034 20.6585 12.5944 12.5944C20.6585 4.53034 31.5957 0 43 0C48.6468 0 54.2384 1.11223 59.4554 3.27318C64.6724 5.43413 69.4127 8.60149 73.4056 12.5944C77.3985 16.5873 80.5659 21.3276 82.7268 26.5446C84.8878 31.7616 86 37.3532 86 43C86 48.6468 84.8878 54.2384 82.7268 59.4554C80.5659 64.6724 77.3985 69.4127 73.4056 73.4056C69.4127 77.3985 64.6724 80.5659 59.4554 82.7268ZM40.266 33.3632L53.77 40.8996C54.1428 41.1078 54.4534 41.4123 54.6697 41.7816C54.886 42.1509 55 42.5716 55 43C55 43.4284 54.886 43.8491 54.6697 44.2184C54.4534 44.5877 54.1428 44.8922 53.77 45.1004L40.266 52.6368C39.8288 52.8809 39.3356 53.006 38.8354 52.9998C38.3352 52.9935 37.8453 52.8561 37.4142 52.6011C36.9831 52.3462 36.6259 51.9825 36.3778 51.5461C36.1298 51.1098 35.9995 50.6159 36 50.1134V35.8866C35.9995 35.3841 36.1298 34.8902 36.3778 34.4539C36.6259 34.0175 36.9831 33.6539 37.4142 33.3989C37.8453 33.1439 38.3352 33.0065 38.8354 33.0002C39.3356 32.994 39.8288 33.1191 40.266 33.3632Z" fill="white"/>
</svg>
