<svg width="44" height="44" viewBox="0 0 44 44" fill="none" xmlns="http://www.w3.org/2000/svg">
<rect y="0.558594" width="43.2434" height="43.2434" rx="21.6217" fill="#7B7E98"/>
<g clip-path="url(#clip0_762_1269)">
<path d="M18.2957 30.0092C25.0484 30.0092 28.7424 24.4141 28.7424 19.5704C28.7424 19.4139 28.7424 19.255 28.7356 19.0985C29.4548 18.5779 30.0755 17.9333 30.5686 17.195C29.8969 17.4912 29.185 17.6864 28.4561 17.7743C29.2238 17.3154 29.7989 16.5933 30.0743 15.7423C29.353 16.1696 28.5634 16.4696 27.7403 16.6291C27.1869 16.0398 26.4546 15.6493 25.6569 15.5183C24.8591 15.3873 24.0404 15.523 23.3276 15.9044C22.6148 16.2857 22.0476 16.8915 21.7139 17.6279C21.3803 18.3643 21.2987 19.1901 21.4819 19.9775C20.0222 19.9043 18.5941 19.5251 17.2903 18.8645C15.9866 18.2038 14.8363 17.2765 13.914 16.1426C13.4457 16.9513 13.3028 17.9079 13.5143 18.8181C13.7258 19.7283 14.2757 20.5239 15.0524 21.0433C14.4704 21.0235 13.9011 20.8672 13.3906 20.587V20.6373C13.3916 21.4845 13.685 22.3053 14.2214 22.961C14.7577 23.6168 15.504 24.0672 16.3341 24.2362C16.019 24.323 15.6935 24.3663 15.3667 24.3649C15.1363 24.3656 14.9064 24.3442 14.68 24.3011C14.9147 25.0303 15.3715 25.6679 15.9866 26.1246C16.6016 26.5812 17.3441 26.834 18.1101 26.8476C16.8089 27.8696 15.2016 28.4239 13.5471 28.4212C13.2556 28.4224 12.9643 28.4056 12.6748 28.3708C14.354 29.4414 16.3042 30.0099 18.2957 30.0092Z" fill="#111327"/>
</g>
<defs>
<clipPath id="clip0_762_1269">
<rect width="17.8938" height="17.8938" fill="white" transform="translate(12.6748 13.2334)"/>
</clipPath>
</defs>
</svg>
