<svg width="53" height="53" viewBox="0 0 53 53" fill="none" xmlns="http://www.w3.org/2000/svg">
<circle cx="26.5" cy="26.5" r="26.5" fill="white"/>
<path d="M27.762 35.3338L27.762 20.3677L33.2639 24.9484C33.5216 25.1626 33.8538 25.2656 34.1875 25.2348C34.5212 25.2041 34.8289 25.042 35.0431 24.7843C35.2573 24.5266 35.3604 24.1944 35.3296 23.8607C35.2989 23.527 35.1368 23.2192 34.8791 23.005L27.3077 16.6955C27.2474 16.6531 27.1842 16.6151 27.1184 16.5819C27.0553 16.5819 27.0174 16.5819 26.9543 16.4936C26.8096 16.4364 26.6556 16.4065 26.5 16.4053C26.3445 16.4065 26.1905 16.4364 26.0458 16.4936C25.9827 16.4936 25.9448 16.4936 25.8817 16.5819C25.8159 16.6151 25.7527 16.6531 25.6924 16.6955L18.121 23.005C17.9786 23.1237 17.864 23.2723 17.7855 23.4402C17.707 23.6081 17.6664 23.7913 17.6667 23.9767C17.6661 24.2715 17.7688 24.5573 17.957 24.7843C18.0629 24.9121 18.193 25.0177 18.3398 25.0951C18.4866 25.1726 18.6473 25.2203 18.8126 25.2355C18.9778 25.2507 19.1445 25.2332 19.303 25.1839C19.4615 25.1347 19.6087 25.0546 19.7362 24.9484L25.2381 20.3677L25.2381 35.3338C25.2381 35.6685 25.3711 35.9895 25.6077 36.2261C25.8444 36.4628 26.1654 36.5958 26.5 36.5958C26.8347 36.5958 27.1557 36.4628 27.3923 36.2261C27.629 35.9895 27.762 35.6685 27.762 35.3338Z" fill="black"/>
</svg>
